<?xml version="1.0" encoding="UTF-8"?>
<svg width="286px" height="86px" viewBox="0 0 286 86" version="1.1" xmlns="http://www.w3.org/2000/svg" xmlns:xlink="http://www.w3.org/1999/xlink">
    <title>360</title>
    <g id="作品集个人网站" stroke="none" stroke-width="1" fill="none" fill-rule="evenodd">
        <g id="画框-2" transform="translate(-1854, -273)">
            <g id="360" transform="translate(1854, 273)">
                <g id="图形" opacity="0.600000024">
                    <g id="编组" transform="translate(0.1339, 0.0058)">
                        <path d="M84.4256323,42.9214458 C84.4256323,65.8906576 65.81203,84.5107037 42.851209,84.5107037 C19.890388,84.5107037 1.27678571,65.8906576 1.27678571,42.9214458 L1.49639819,38.6030098 C3.63533371,17.5502525 21.4730008,1.33218793 42.851209,1.33218793 C65.81203,1.33218793 84.4256323,19.952234 84.4256323,42.9214458 Z" id="路径" stroke="#D0D0D0" stroke-width="2.55357143"></path>
                        <path d="M78.9227445,65.9772536 C71.0462178,78.641343 57.1010037,86.2383032 42.1931369,85.9865103 C39.0300082,85.9950095 35.8816879,85.5542983 32.8423909,84.6775651 L32.4138788,84.6775651 C23.5871865,82.4333715 15.6785243,77.4944319 9.78691,70.54708 C9.56500193,70.3250951 9.56500193,70.1107649 9.35074596,69.8887801 C8.66553094,68.7753248 8.29038189,67.4988479 8.26416174,66.1915838 C8.22312271,64.4298629 8.8898816,62.725231 10.115216,61.4591892 C11.3405504,60.1931474 13.0221496,59.4714055 14.7836671,59.4554912 C16.2014073,59.4185416 17.5874011,59.8788942 18.7014919,60.7567818 C19.3163777,61.1502739 19.8385363,61.6726133 20.2318922,62.287712 C26.7820056,68.8018197 53.4874912,92.7302576 78.9227445,65.9772536 L78.9227445,65.9772536 Z" id="路径" fill="#D0D0D0"></path>
                        <path d="M42.3997409,85.1138802 C39.3086451,85.1062015 36.233656,84.6682374 33.263251,83.8125896 L32.8270869,83.8125896 C24.2418315,81.6898568 16.5536171,76.8914365 10.8734942,70.110765 C10.8734942,69.8887801 10.6515861,69.6744498 10.6515862,69.4601196 C10.0120776,68.4952892 9.70818426,67.3465514 9.78691,66.1915838 C9.73087741,64.6564544 10.300519,63.1643892 11.3652459,62.0574403 C12.4299728,60.9504915 13.8984697,60.3235955 15.4340872,60.3204668 C16.6070395,60.3497068 17.7446369,60.7281488 18.7014919,61.4074271 C18.7014919,61.8437423 19.130004,62.2800573 19.5661681,62.7163724 C24.3486691,67.5005291 36.9591677,78.7911388 52.615163,79.0284329 C59.6452604,79.0756414 66.5044678,76.861795 72.1813311,72.7133462 C64.4656228,80.8909838 53.6370867,85.3997971 42.3997409,85.1138802 Z" id="路径" fill="#D0D0D0"></path>
                        <path d="M5.65482917,22.0395589 C12.9307001,9.02610557 26.4289797,0.71459066 41.3208087,0.0783661446 C44.4491701,-0.137089912 47.5922683,0.092281071 50.6562506,0.759630094 L51.0924147,0.759630094 C60.0639136,2.42596865 68.2381846,6.99868948 74.3544996,13.7725362 C74.5764077,13.9868664 74.5764077,14.2088513 74.7906637,14.4231815 C75.5042353,15.5238065 75.8818139,16.8085502 75.8772479,18.1203777 C76.0121561,19.8914127 75.4130956,21.6400162 74.2206023,22.9559769 C73.028109,24.2719377 71.3471251,25.0394481 69.5719986,25.0784821 C68.193565,25.0821439 66.84073,24.7060792 65.6618257,23.9914948 C65.0491912,23.5952091 64.527574,23.0734113 64.1314255,22.4605646 C57.8261761,16.3751174 29.9958463,-6.24437527 5.64717715,22.0242495 L5.65482917,22.0395589 Z" id="路径" fill="#D0D0D0"></path>
                        <path d="M41.5274127,0.943341715 C44.5861698,0.727354551 47.6600873,0.949021283 50.6562506,1.60164165 L51.0924147,1.60164165 C59.8349832,3.31471761 67.8206658,7.72656778 73.9259875,14.2165059 C73.9496971,14.378651 74.0247981,14.5289049 74.1402435,14.6451663 C74.8232383,15.6805227 75.1999014,16.8878541 75.2268278,18.1280324 C75.4516036,20.2420947 74.4425216,22.2973535 72.6326463,23.4117599 C70.822771,24.5261663 68.5339269,24.5015611 66.7484101,23.3485041 L65.4399178,22.0395589 C60.4431607,17.4467685 47.1822419,6.81445875 31.7711106,7.49572262 C24.6054576,7.49144937 17.6712237,10.0333447 12.2049425,14.6681303 C19.7007445,6.28672444 30.2918683,1.32940219 41.5274127,0.943341715 Z" id="路径" fill="#D0D0D0"></path>
                        <path d="M57.6195721,38.3516194 L48.4830822,38.3516194 L48.4830822,29.2196212 C48.3780032,26.5330075 46.1702379,24.4091981 43.4824991,24.4091981 C40.7947603,24.4091981 38.586995,26.5330075 38.481916,29.2196212 L38.481916,38.3516194 L29.5673342,38.3516194 C26.8816503,38.4567347 24.7585759,40.6652643 24.7585759,43.3539336 C24.7585759,46.0426028 26.8816503,48.2511325 29.5673342,48.3562478 L38.7038241,48.3562478 L38.7038241,57.4959006 C38.8089031,60.1825143 41.0166684,62.3063237 43.7044072,62.3063237 C46.392146,62.3063237 48.5999113,60.1825143 48.7049902,57.4959006 L48.7049902,48.3562478 L57.8338281,48.3562478 C59.16534,48.377129 60.4484489,47.8572123 61.3900856,46.9152496 C62.3317224,45.9732868 62.8514592,44.6897337 62.8305852,43.3577609 C62.7004304,40.5684873 60.4108628,38.3689344 57.6195721,38.3516194 Z" id="路径" fill="#D0D0D0"></path>
                        <path d="M57.6195721,37.5019531 L48.4830822,37.5019531 L48.4830822,28.3163724 C48.3780032,25.6297587 46.1702379,23.5059493 43.4824991,23.5059493 C40.7947603,23.5059493 38.586995,25.6297587 38.481916,28.3163724 L38.481916,37.5019531 L29.5673342,37.5019531 C26.8816503,37.6070685 24.7585759,39.8155981 24.7585759,42.5042673 C24.7585759,45.1929366 26.8816503,47.4014662 29.5673342,47.5065816 L38.7038241,47.5065816 L38.7038241,56.6385797 C38.6320993,58.4724085 39.5692073,60.1984935 41.1459229,61.1367485 C42.7226385,62.0750035 44.6861759,62.0750035 46.2628914,61.1367485 C47.839607,60.1984935 48.776715,58.4724085 48.7049902,56.6385797 L48.7049902,47.4912722 L57.8338281,47.4912722 C59.1666896,47.5122087 60.4510024,46.9912511 61.3928725,46.0476121 C62.3347425,45.1039731 62.853554,43.81842 62.8305852,42.4851308 C62.6924096,39.7031706 60.4039704,37.5147865 57.6195721,37.5019531 Z" id="路径" fill="#D0D0D0"></path>
                    </g>
                </g>
                <g id="图形" transform="translate(115.7619, 18.7327)" fill="#36383B" fill-rule="nonzero" opacity="0.100000001">
                    <path d="M151.678179,0.416669772 C161.4626,0.416669772 169.415881,6.96808116 169.415881,15.0184555 L169.415881,32.9824256 C169.415881,41.0419719 161.46129,47.5868319 151.676869,47.5868319 L133.797705,47.5868319 C124.015904,47.5868319 116.057384,41.0419719 116.057384,32.9824256 L116.057384,15.0184555 C116.057384,6.9680812 124.015904,0.416669772 133.799015,0.416669772 L151.678179,0.416669772 Z M108.548135,0.416669772 L108.548135,9.16935538 L76.7271534,9.16935538 C72.7950472,9.16935538 69.6252614,11.7781274 69.6252614,15.0184555 L69.6252614,18.497255 L96.9640088,18.497255 C106.745811,18.497255 112.33485,23.1238617 112.33485,31.1716154 L112.33485,34.0044457 L112.279837,34.0044457 C111.640641,41.5818081 103.959805,47.5868319 94.5919088,47.5868319 L76.7271534,47.5868319 C66.9440418,47.5868319 58.976353,41.0419719 58.976353,32.9824256 L58.976353,15.0184555 C58.976353,6.96808116 66.9453517,0.416669772 76.7271534,0.416669772 L108.548135,0.416669772 Z M36.5769701,0.416669772 C46.189804,0.416669772 54.0134116,6.96808116 54.0134116,15.0184555 L54.0134116,32.9824256 C54.0134116,41.0419719 46.189804,47.5868319 36.5769701,47.5868319 L0.654914424,47.5868319 L0.654914424,38.823664 L36.5769701,38.823664 C40.4278669,38.823664 43.5544283,36.2122714 43.5544284,32.9837359 L43.5544284,28.1972747 L4.25170438,28.1972747 L4.25170438,19.9582197 L43.5544284,19.9582197 L43.5544284,15.0184555 C43.5544284,11.7781274 40.4278669,9.16935543 36.5769701,9.16935538 L0.654914424,9.16935538 L0.654914424,0.416669772 L36.5769701,0.416669772 Z M151.676869,9.16935538 L133.797705,9.16935538 C129.885247,9.16935538 126.702363,11.7768171 126.702363,15.0184555 L126.702363,32.9824256 C126.702363,36.2109611 129.885247,38.8223537 133.799015,38.8223537 L151.678179,38.8223537 C155.590638,38.8223537 158.772212,36.2109611 158.772212,32.9824256 L158.772212,15.0184555 C158.772212,11.7781274 155.590638,9.16935538 151.676869,9.16935538 L151.676869,9.16935538 Z M94.6010776,27.2735257 L69.6252614,27.2735257 L69.6252614,32.9824256 C69.6252614,36.2109611 72.7950472,38.8223537 76.7271534,38.8223537 L94.5932186,38.8223537 C98.4912693,38.8223537 101.655816,36.2410976 101.675463,33.0269752 C101.640098,29.8429892 98.4860299,27.2735257 94.6023875,27.2735257 L94.6010776,27.2735257 Z" id="形状"></path>
                </g>
            </g>
        </g>
    </g>
</svg>