<?xml version="1.0" encoding="UTF-8"?>
<svg width="314px" height="63px" viewBox="0 0 314 63" version="1.1" xmlns="http://www.w3.org/2000/svg" xmlns:xlink="http://www.w3.org/1999/xlink">
    <title>奇安信</title>
    <defs>
        <polygon id="path-1" points="0 0 150.802632 0 150.802632 63 0 63"></polygon>
    </defs>
    <g id="作品集个人网站" stroke="none" stroke-width="1" fill="none" fill-rule="evenodd" opacity="0.100000001">
        <g id="画框-2" transform="translate(-68, -285)">
            <g id="logo" transform="translate(68, 285)">
                <g id="奇安信" transform="translate(152.8684, 16.8)" fill="#000000">
                    <polygon id="Fill-2" points="148.69192 5.64040977 148.69192 0.638057387 140.214666 0.638057387 140.214666 5.64040977 127.325792 5.64040977 127.325792 9.95474698 161.131579 9.95474698 161.131579 5.64040977"></polygon>
                    <polygon id="Fill-3" points="130.269519 16.5256206 158.187852 16.5256206 158.187852 12.2112834 130.269519 12.2112834"></polygon>
                    <polygon id="Fill-4" points="130.269519 23.2491065 158.187852 23.2491065 158.187852 18.9358648 130.269519 18.9358648"></polygon>
                    <path d="M137.799562,38.1159312 L150.657809,38.1159312 L150.657809,30.6288361 L137.799562,30.6288361 L137.799562,38.1159312 Z M129.654683,42.4291729 L158.802688,42.4291729 L158.802688,26.3144989 L129.654683,26.3144989 L129.654683,42.4291729 Z" id="Fill-5"></path>
                    <path d="M117.751248,43.5679037 L125.815586,43.5679037 L125.815586,8.30822148 C127.192729,5.86839696 128.167165,3.2773844 128.57214,0.672129476 L120.738082,0.672129476 C119.602563,4.75968461 115.325934,10.0414062 110.175829,12.6992483 L113.719646,20.1392341 C115.033263,19.4468366 116.31852,18.6207802 117.553865,17.6884539 L117.751248,43.5679037 Z" id="Fill-6"></path>
                    <polygon id="Fill-8" points="66.3039695 9.67384396 96.1314708 9.67384396 96.1314708 14.1426559 104.42382 14.1426559 104.42382 9.67384396 104.42382 5.95658999 104.42382 4.94866967 85.5669496 4.94866967 85.5669496 0.637619161 76.8673563 0.637619161 76.8673563 4.94866967 58.0127545 4.94866967 58.0127545 5.95658999 58.0127545 9.67384396 58.0127545 14.1426559 66.3039695 14.1426559"></polygon>
                    <path d="M74.4750532,27.54953 C75.7580418,25.8207275 77.0251491,23.8191292 78.1924306,21.7035921 L88.5754503,21.7035921 C87.4456035,24.9300327 85.4502215,27.574728 82.8717659,29.7154631 C80.0868524,28.8510619 77.266773,28.1279886 74.4750532,27.54953 M91.2219689,32.8082447 C93.804962,29.8896581 95.8241661,26.2567626 97.2478184,21.7035921 L105.413117,21.7035921 L105.413117,16.9795134 L80.5440093,16.9795134 C81.4401729,14.9636728 82.2024792,12.9500232 82.7605963,11.0623638 L74.6452108,11.0623638 C73.8261853,12.9522144 72.8721681,14.9538127 71.8228626,16.9795134 L57.021416,16.9795134 L57.021416,21.7035921 L69.220585,21.7035921 C67.5348899,24.591503 65.7153375,27.3862907 63.881038,29.8239241 C67.3533884,30.7803529 71.5676262,32.1793901 75.888496,33.8599877 C70.9629993,35.9503268 65.259315,37.0732815 59.7257882,37.4950742 L63.0483999,44.5559943 C71.9283604,43.2818516 79.3495026,41.427059 85.1416689,37.876331 C89.7155065,40.0959469 93.8594125,42.5259113 96.7146578,44.9613536 L104.276464,40.5626578 C100.529592,37.4917875 96.0431023,34.9150173 91.2219689,32.8082447" id="Fill-10"></path>
                    <path d="M12.8128709,16.9779796 C17.2664637,15.7761442 20.6094943,14.1119801 23.0688395,11.6863979 C27.9262732,13.174176 33.3747211,15.0848423 37.8260452,16.9779796 L12.8128709,16.9779796 Z M12.3942831,34.7579132 L22.8669191,34.7579132 L22.8669191,28.9711359 L12.3942831,28.9711359 L12.3942831,34.7579132 Z M44.8966626,12.39742 C41.3483085,11.0487788 35.8760385,9.36708561 31.512062,8.48625089 L48.2260806,8.48625089 L48.2260806,3.68110031 L27.5644046,3.68110031 C27.8899729,2.53952099 28.1599564,1.31796538 28.3754894,0 L19.9889861,0 C19.8347098,1.37493479 19.5272917,2.59429926 19.0837474,3.68110031 L1.71518909,3.68110031 L1.71518909,8.48625089 L15.277888,8.48625089 C12.2933229,10.6510885 8.10857912,11.7510363 3.240936,12.4971164 L6.43649664,16.9779796 L0,16.9779796 L0,21.7853213 L36.0518681,21.7853213 L36.0518681,35.2498221 C36.0518681,37.9230021 35.8998606,38.8301304 32.8767264,39.0317145 L30.071394,39.1588001 L30.071394,24.1144937 L5.08317614,24.1144937 L5.08317614,39.6167465 L29.5858775,39.6167465 L31.9488,46.2 L38.9479513,45.647835 C44.3895929,45.2194688 44.9306942,41.5712355 44.8875876,37.678691 L44.8875876,21.7853213 L49.9401353,21.7853213 L49.9401353,16.9779796 L42.3726575,16.9779796 L44.8966626,12.39742 Z" id="Fill-12"></path>
                </g>
                <g id="老虎">
                    <path d="M91.0789595,25.6055121 C90.8852381,25.4283197 90.6563977,25.3419385 90.357319,25.3330788 L90.1262128,25.328649 C89.864519,25.328649 89.6730634,25.3984185 89.5235241,25.5479246 C89.3660546,25.7040753 89.3060123,25.8613335 89.3196068,26.0783941 C89.479342,28.6133521 89.6016923,31.1837486 89.6843921,33.7187066 C89.6911894,33.940197 89.7738891,34.1085297 89.9608133,34.2790774 C90.151136,34.4518399 90.3799765,34.5348988 90.680188,34.5371137 L90.8795738,34.5393286 C91.1854496,34.5393286 91.3984299,34.4640219 91.5728924,34.3023339 C91.7348933,34.148398 91.8085301,33.9800653 91.8006,33.7707568 C91.7065715,31.2501957 91.5649623,28.6953036 91.3814368,26.1802797 C91.3633108,25.9554669 91.2738138,25.7827044 91.0789595,25.6055121" id="Fill-14" fill="#000000"></path>
                    <path d="M46.6479966,28.2389225 L46.8938302,28.2333853 C47.2110348,28.2245257 47.4580012,28.1326071 47.6709814,27.9421254 C47.872633,27.7605032 47.9757244,27.5678065 47.9927176,27.3341341 C48.1649143,25.1114777 48.3858247,22.8234815 48.6713088,20.3416812 L48.6905677,20.1755634 C48.1535856,19.7934924 47.6052748,19.398132 47.0490338,18.9894821 L47.0105161,19.0238132 C46.7998016,19.2154024 46.6853814,19.4136363 46.653661,19.6506311 C46.303603,22.2409617 46.0113216,24.8678382 45.7870126,27.4592762 C45.7688867,27.6796592 45.8311947,27.8479919 45.9931956,28.0063576 C46.1551966,28.1658307 46.3636453,28.2389225 46.6479966,28.2389225" id="Fill-16" fill="#000000"></path>
                    <path d="M62.9618296,26.2511567 C62.447505,26.2555865 62.0509993,26.4050925 61.7122701,26.7218238 C61.381471,27.0330179 61.2217358,27.3696834 61.2081413,27.7805481 C61.085791,31.5314886 61.0110213,35.3333718 60.9894713,39.0820974 C60.987231,39.4896398 61.1367703,39.820768 61.4596392,40.1208875 C61.7825082,40.4232219 62.2084687,40.5771578 62.7250591,40.5771578 L63.0173405,40.5760503 C63.5395952,40.5760503 63.9542269,40.4265443 64.2872918,40.1175651 C64.6112936,39.8130158 64.7630987,39.4807801 64.7653644,39.0721303 C64.777826,35.3156526 64.8208752,31.4971575 64.8922463,27.7273904 C64.9013093,27.3187406 64.7608329,26.9887198 64.4515584,26.6874928 C64.1422839,26.3873733 63.7684357,26.2478343 63.2733699,26.2478343 L62.9618296,26.2511567 Z" id="Fill-18" fill="#000000"></path>
                    <path d="M102.675507,36.1036048 C102.416079,35.8754696 102.097741,35.7614021 101.704634,35.7580797 L101.433877,35.7536499 C101.056631,35.7536499 100.773412,35.8522131 100.545705,36.0659514 C100.322528,36.2741524 100.222836,36.5022876 100.231899,36.7857953 C100.32706,39.7748087 100.332724,42.8070127 100.246626,45.7960261 C100.239829,46.0817487 100.339522,46.3109913 100.564963,46.5180849 C100.794937,46.7329306 101.079288,46.8326013 101.461066,46.8326013 L101.725026,46.8292789 C102.129462,46.8237417 102.437603,46.7129964 102.697031,46.4826464 C102.943998,46.2644783 103.064083,46.0296985 103.073146,45.7450833 C103.168307,42.7915084 103.16151,39.7969577 103.05502,36.8433828 C103.044824,36.5587676 102.924739,36.3228803 102.675507,36.1036048" id="Fill-20" fill="#000000"></path>
                    <mask id="mask-2" fill="white">
                        <use xlink:href="#path-1"></use>
                    </mask>
                    <g id="Clip-23"></g>
                    <path d="M106.464629,45.3125125 C106.419314,46.7112245 105.938976,47.8231065 105.03381,48.6149348 C104.147903,49.3901513 102.999169,49.7954788 101.620462,49.8198427 L101.248879,49.8264874 C99.9245499,49.8264874 98.8517186,49.4510612 98.0655043,48.7101757 C97.2453038,47.9427113 96.8476652,46.8186474 96.8805185,45.3734223 C96.9428266,42.6657018 96.9382951,39.9203279 96.8669241,37.209285 C96.8295392,35.7463407 97.2203806,34.6200619 98.0303853,33.8592422 C98.8018722,33.1294313 99.8724377,32.7595423 101.210361,32.7595423 L101.591007,32.7650795 C102.986707,32.7927658 104.13884,33.1969859 105.015684,33.9633427 C105.914053,34.7496338 106.395524,35.8648381 106.446503,37.2779471 C106.541665,39.9446918 106.548462,42.6479826 106.464629,45.3125125 L106.464629,45.3125125 Z M93.8013681,36.3000668 C93.0955878,36.9601083 92.1417083,37.2934514 90.9657854,37.2934514 L90.727882,37.2923439 C89.536099,37.2834843 88.5572962,36.9368518 87.8209283,36.2590911 C87.0766304,35.5757931 86.6801246,34.5956979 86.6438726,33.3487068 C86.578166,31.0584957 86.4818717,28.7306313 86.3583885,26.4315606 C86.291549,25.1668503 86.5951591,24.1878626 87.2624216,23.5244987 C87.8911665,22.893251 88.764612,22.5731973 89.8555693,22.5731973 C89.9088144,22.5731973 90.2067601,22.579842 90.2067601,22.579842 C91.3656898,22.6130656 92.3331639,22.9752024 93.085392,23.6551781 C93.8512145,24.3473357 94.2907695,25.323001 94.3893295,26.5555953 C94.5717221,28.8358393 94.7144642,31.1437696 94.8141571,33.4162614 C94.8674021,34.6488556 94.5264072,35.6200912 93.8013681,36.3000668 L93.8013681,36.3000668 Z M72.9859485,47.9571082 L72.9746197,47.6592036 C72.9428993,46.8585157 72.9100459,45.2947932 72.9100459,45.2792889 L72.9021158,44.9658799 C72.9021158,44.9658799 75.2403669,44.9658799 75.8068037,44.9647725 C75.733167,41.0322099 75.5689003,37.2414011 75.3967035,33.7108437 C74.5187264,34.0574762 73.6373508,34.4052162 72.7525765,34.7562785 L72.3345461,34.9223963 L72.3198188,34.4816304 C72.2914969,33.6233549 72.2563779,32.754005 72.2133287,31.8957296 L72.2031328,31.6808839 L75.4941306,30.3087506 L76.2146382,30.3142879 C76.8694392,30.3198252 77.5242401,30.324255 78.1790411,30.3308997 L78.4679238,30.334222 L78.4905813,30.6155149 C78.8485694,35.2269457 79.0547524,39.7940784 79.1374521,44.9592352 L81.5028922,44.9559129 L81.5164867,45.2493877 C81.5380113,45.7045505 81.5425428,46.1519612 81.5482072,46.5827601 C81.5516058,46.9249628 81.5550044,47.2671655 81.5663331,47.6182278 L81.576529,47.9338517 L72.9859485,47.9571082 Z M49.9750198,49.0357666 C47.6945452,49.0102952 45.4152035,48.980394 43.1369947,48.9449555 L42.8413147,48.9405257 L42.8265873,48.6525882 C42.793734,47.9416039 42.7642793,47.231727 42.7416218,46.5218502 L42.731426,46.2006891 L45.1648385,46.2239456 C45.0810058,43.2803377 45.0764743,40.3012914 45.151244,37.3543613 C44.4114775,37.6389765 42.4912568,38.3721098 42.4912568,38.3721098 L42.5025855,37.9103022 C42.5218443,37.1461602 42.5456347,36.3820183 42.5750894,35.6156614 L42.5830195,35.4174274 L42.7710765,35.3432281 C43.6921028,34.975554 44.6119961,34.605665 45.5330224,34.2335611 L45.5885332,34.2125195 L48.3187586,34.1759736 L48.3051641,34.4993496 C48.1567577,38.3986886 48.1318344,42.3511854 48.2315273,46.2527393 L50.2208534,46.2682437 L50.2276506,46.5661483 C50.2457766,47.2837773 50.2673012,48.0014063 50.2922244,48.7179278 L50.3035531,49.039089 L49.9750198,49.0357666 Z M40.1099564,59.1899954 C38.616829,59.1822433 37.0738552,59.1822433 35.525217,59.1822433 L33.1801686,59.1811358 L33.1382523,58.9208846 C33.0374265,58.2752399 32.9332021,57.567578 32.8301106,56.8200478 L32.78253,56.4723078 L33.1393851,56.4700929 C33.4327994,56.467878 33.7250808,56.467878 34.0184951,56.467878 L35.1287112,56.4689855 C34.5792675,53.6161887 34.242804,50.8265167 34.1034606,47.9681827 C33.3727571,48.2328638 32.6465851,48.4942225 31.9204131,48.7522589 L31.5216416,48.8951202 L31.4978513,48.4798256 C31.4582007,47.7400476 31.4253474,46.9914099 31.4004242,46.2516319 L31.3936269,46.0323564 L31.6020757,45.9548347 C32.5004444,45.6170618 33.3999461,45.277074 34.3028463,44.9337638 L34.3583571,44.9127222 L37.0761209,44.929334 L37.0817853,45.2294535 C37.1599536,49.3093073 37.5111444,52.8897001 38.1829384,56.467878 C38.4729541,56.4656631 38.7629697,56.4634482 39.0529854,56.4634482 C39.3226093,56.4634482 39.5944989,56.4656631 39.8641229,56.4700929 L40.140544,56.4756302 L40.1711316,56.7447411 C40.2504328,57.4446508 40.3331325,58.1445606 40.4226295,58.8444704 L40.4679445,59.1911029 L40.1099564,59.1899954 Z M28.4164351,40.9624404 L28.1230208,40.9735149 L28.0913004,40.6866848 C28.0074677,39.893749 27.96895,39.2547492 27.9700586,38.6755517 L27.9712158,38.3820769 C27.9712158,38.3820769 29.7226383,38.3012328 30.4476775,38.2691167 C30.3729078,35.5337099 30.6096784,32.6299704 31.1681851,29.4183591 C30.4227542,29.7417351 29.6761905,30.0640037 28.9273611,30.3851648 L28.3835817,30.6188372 L28.4912047,30.0496068 C28.6248838,29.3353002 28.7710245,28.6132414 28.9250953,27.9000422 L28.9568158,27.7494287 L29.1006907,27.684089 C30.0455073,27.2577199 30.9880582,26.8302434 31.9272104,26.400552 L31.9759239,26.3772955 L32.0314348,26.3728657 C32.7666697,26.3053111 33.5041704,26.2377565 34.2405383,26.1746317 L34.65517,26.1391933 L34.5781346,26.537876 C33.7873888,30.6166223 33.4101419,34.5181763 33.4554569,38.1373299 C34.0252923,38.112966 35.4878321,38.0520561 35.4878321,38.0520561 L35.4946294,38.3665725 C35.5093567,39.0232917 35.5490073,39.6988375 35.6135811,40.3743833 L35.6441687,40.6988668 L35.3111038,40.7099413 C33.0034403,40.7896778 30.7252315,40.8738442 28.4164351,40.9624404 L28.4164351,40.9624404 Z M143.45975,33.4085092 C140.236724,31.76948 134.623336,32.3807936 133.390769,35.5824378 C132.765423,37.7929123 133.661526,39.3267335 135.119534,39.6966226 C137.148511,40.2126953 136.620592,38.7442137 139.32023,39.1207474 C143.9922,39.7741442 142.723382,45.1297828 141.643753,46.6990426 C138.541945,51.2152324 131.038923,49.952737 126.838228,45.4897048 C124.586075,43.0953932 122.889031,38.1484044 120.389912,34.4572664 C118.697398,31.9599618 116.514351,29.0418254 113.795454,26.5766369 C114.222548,29.1769345 114.544284,31.7871993 114.747068,34.3465212 L116.732996,34.3930342 L116.755653,34.6698972 C116.808898,35.3410132 116.856479,36.0265261 116.893864,36.7076092 L116.914255,37.0387374 L116.575526,37.0320927 C114.284856,36.9933318 111.996451,36.9578934 109.706914,36.9246698 L109.411233,36.92024 L109.397639,36.631195 C109.364786,35.9401448 109.325135,35.2502022 109.27982,34.5602595 L109.258296,34.2258089 C109.258296,34.2258089 110.990459,34.2612474 111.683778,34.2767517 C111.471931,31.4317071 111.129803,28.5512241 110.66759,25.7039646 C109.986733,25.9409593 109.301345,26.180169 108.612558,26.422701 L108.248905,26.550058 L108.194527,26.1768466 C108.088037,25.4359611 107.970218,24.6840011 107.846735,23.9442231 L107.805952,23.6950463 L109.10649,23.2188419 C102.927798,19.8621544 98.2320368,20.1777783 91.5911317,21.4203396 C86.5249209,22.3672112 81.5618017,23.7338072 77.4392746,24.6385956 C75.2369683,25.0538901 71.7941654,25.4171345 68.158774,25.5289871 C68.4986361,26.295344 68.6697,27.2134219 68.660637,28.262179 C68.6300494,31.6698093 68.6107906,35.1239526 68.6039934,38.529368 C68.6005947,40.2902169 68.0817386,41.6656725 67.0632853,42.6169739 C66.0538949,43.5594157 64.698978,44.037835 63.0336538,44.037835 L62.7300437,44.037835 C61.0567894,44.0356201 59.6962082,43.5549859 58.6811534,42.6125441 C57.6525042,41.6568129 57.1404453,40.2891095 57.1563056,38.5459798 C57.188026,35.1571762 57.2741244,31.7218596 57.4134679,28.3352709 C57.4678458,27.0185103 57.806575,25.9088432 58.4149281,25.0262038 C56.8187092,24.7526632 55.4275405,24.3617325 54.3898282,23.8268332 C53.5707606,23.4082162 52.5783633,22.8079772 51.4794759,22.0881333 C51.3061463,23.934256 51.1747329,25.4835816 51.0727743,26.9432035 C50.9832773,28.2234182 50.5425895,29.2300922 49.7609067,29.9322169 C48.9860211,30.6321267 47.974365,30.9998008 46.7576587,31.0252722 L46.4336569,31.0308094 C45.2611327,31.0308094 44.3253791,30.7007887 43.6558508,30.0496068 C42.9444062,29.361879 42.6464604,28.3707094 42.7699437,27.1037841 C42.999917,24.7626302 43.2887998,22.3904677 43.6309276,20.0493138 C43.7917957,18.9562586 44.200763,18.0503627 44.8476339,17.3548828 C39.1164263,13.0457864 33.140518,8.19293106 31.437809,7.1618931 C29.3385942,5.89053802 27.0139376,4.0067619 25.6544892,3.39212596 L24.5861894,2.54049525 L25.1673536,0 C25.1673536,0 21.6361866,0.00110745216 20.6709782,0.789613388 C19.7046371,1.57701187 18.3236641,2.38102214 18.3236641,2.38102214 C18.3236641,2.38102214 15.2524438,2.50062697 13.8170929,2.61469454 C12.1846221,2.7453739 9.41927759,3.11415547 9.41927759,3.11415547 L7.80833132,5.57712906 C6.19058782,6.24713762 4.49354316,6.83187236 2.92904471,7.60930377 C0.970306243,8.43435563 -0.000566436801,9.49529479 -0.000566436801,9.49529479 C0.280386217,12.6304918 1.48349799,14.1632056 1.48349799,14.1632056 C1.48349799,14.1654205 1.19348234,15.623935 1.68514949,16.944018 C1.68854811,16.9528776 1.69081386,16.9628447 1.69874397,16.9761341 C2.28897112,18.6129484 3.17147966,20.1489845 4.3972489,21.4103725 C4.3972489,21.4103725 3.90444888,24.3373686 5.02032938,26.3972296 C5.11775651,26.5722071 5.92776114,27.8911826 7.98732535,27.4769955 C9.80218887,27.128148 12.8314929,26.7471845 15.3408079,27.4138707 C15.4937459,27.4548464 15.6512153,27.4836402 15.8052861,27.5246159 C25.9716938,29.9654405 20.2676752,41.2249065 30.1599276,51.9173571 C34.0740059,56.1478244 22.7010877,54.0547398 19.3919639,55.6671901 C17.6847234,56.4988867 16.5699758,58.3040337 16.5189965,60.3184892 L16.4215693,62.9808042 C16.4215693,62.9808042 44.6505138,63.0239948 50.7431081,62.9808042 C52.4265583,62.8744888 53.674985,61.5676952 53.7270972,60.1479415 C53.7406917,57.8743423 53.7928038,56.2330982 53.7656149,53.3271437 C53.7406917,50.4200818 55.3674981,57.555396 55.8874871,59.1778135 C56.2511396,60.3063072 56.7620656,61.0881684 57.9187295,61.133574 L61.9608225,61.133574 C61.8112832,57.5277097 61.7025274,53.8963741 61.6368207,50.3337005 C60.5220731,50.7656069 59.410724,51.1941909 58.3027737,51.6194525 L57.8858762,51.780033 L57.8734146,51.341482 C57.8439599,50.322626 57.8201695,49.30377 57.7986449,48.284914 L57.7941134,48.0733907 L57.994632,47.9936541 C59.2521217,47.4908708 60.5141429,46.9847652 61.7795628,46.4753372 L61.8373393,46.4509733 L65.4126884,46.4620478 L65.4149542,46.7665971 C65.4489404,51.4466899 65.532773,56.2773963 65.6641863,61.1269293 L65.6641863,61.133574 L72.4931484,61.133574 C74.07464,61.133574 74.5221251,60.3683245 75.0285196,59.1002918 C76.063966,56.1622212 79.1487809,53.1864973 83.7754367,53.1864973 C85.1552767,53.1864973 85.4600197,53.1499514 85.4600197,53.1499514 C87.8345228,53.1499514 87.5501715,52.5696464 86.6574671,51.5784768 C84.5242661,49.083387 85.0997659,45.5771935 86.0411839,43.1662702 C86.3017448,42.5948249 86.4773402,42.5272703 86.4546828,43.2570812 C85.6378809,50.2705758 89.8272475,52.8033188 91.955917,54.2418992 C92.6526342,54.7236409 92.0556099,55.1012821 91.6194535,55.1012821 C91.1855629,55.1012821 89.8238489,55.1046044 84.5276647,55.1046044 C79.2303478,55.1046044 78.5189031,60.0981062 78.5189031,62.3628459 C78.5189031,63.0682929 79.0411579,62.9808042 79.6982246,62.9808042 L102.689894,62.9808042 C102.689894,62.9808042 111.985122,51.3403745 115.882208,51.3392671 C119.533459,54.1787744 123.430544,58.4635068 134.997184,59.1789209 C151.069262,59.1789209 156.610147,39.060945 143.45975,33.4085092 L143.45975,33.4085092 Z" id="Fill-22" fill="#000000" mask="url(#mask-2)"></path>
                </g>
            </g>
        </g>
    </g>
</svg>