<?xml version="1.0" encoding="UTF-8"?>
<svg width="288px" height="62px" viewBox="0 0 288 62" version="1.1" xmlns="http://www.w3.org/2000/svg" xmlns:xlink="http://www.w3.org/1999/xlink">
    <title>微软</title>
    <g id="微软" stroke="none" fill="none" opacity="0.100000001" fill-rule="evenodd" stroke-width="1">
        <g id="编组" transform="translate(1.9752, 0.9789)" fill="#000000">
            <polygon id="路径" points="0 0 28.6402233 0 28.6402233 28.3894737 0 28.3894737"></polygon>
            <polygon id="路径" points="31.767604 0 60.4078272 0 60.4078272 28.3894737 31.767604 28.3894737"></polygon>
            <polygon id="路径" points="0 31.6526316 28.6402233 31.6526316 28.6402233 60.0421053 0 60.0421053"></polygon>
            <polygon id="路径" points="31.767604 31.6526316 60.4078272 31.6526316 60.4078272 60.0421053 31.767604 60.0421053"></polygon>
            <path d="M98.4301926,38.6684211 L87.7312586,12.0736842 L78.8429134,12.0736842 L78.8429134,47.9684211 L84.7684769,47.9684211 L84.7684769,20.2315789 L96.2904058,47.9684211 L100.569979,47.9684211 L111.76271,20.2315789 L111.76271,47.9684211 L118.182071,47.9684211 L118.182071,12.0736842 L109.458324,12.0736842 L98.4301926,38.6684211 Z M123.943035,22.1894737 L130.197796,22.1894737 L130.197796,48.1315789 L123.943035,48.1315789 L123.943035,22.1894737 Z M144.517908,22.1894737 C139.41534,23.6578948 133.654375,27.2473684 134.641969,37.5263158 C135.629563,47.8052632 146.163898,48.7842105 148.632883,48.6210526 C151.101868,48.4578947 154.887644,46.6631579 154.887644,46.6631579 L154.887644,41.2789474 C154.887644,41.2789474 151.924862,44.2157895 147.151492,43.4 C142.378121,42.7473684 140.89673,38.1789474 140.89673,36.3842105 C140.89673,34.5894737 140.567533,27.7368421 147.316091,26.5947368 C152.747857,25.6157895 154.723045,28.7157895 154.723045,28.7157895 L154.723045,23.0052632 C154.558446,23.0052632 149.455878,20.5578947 144.517908,22.1894737 L144.517908,22.1894737 Z M165.421979,26.4315789 L165.421979,22.0263158 L159.331817,22.0263158 L159.331817,47.9684211 L165.586578,47.9684211 L165.586578,35.0789474 C165.586578,31.4894737 166.080375,28.3894737 169.372355,27.4105263 C172.664334,26.431579 174.474923,28.3894737 174.474923,28.3894737 L174.474923,22.0263158 C167.890964,20.5578947 165.421979,26.431579 165.421979,26.4315789 Z M188.630436,21.5368421 C180.400487,21.3736842 176.779309,27.4105263 176.779309,27.4105263 C171.182944,40.7894737 179.412893,48.4578947 187.642842,48.4578947 C195.872791,48.4578947 201.469157,43.5631579 201.633756,34.9157895 C201.633756,26.5947368 196.860385,21.7 188.630436,21.5368421 L188.630436,21.5368421 Z M192.087015,42.5842105 C189.61803,43.8894737 183.363268,44.5421053 181.717279,38.8315789 C180.071289,33.1210526 182.211076,29.2052631 184.021664,27.7368421 C184.021664,27.7368421 185.996852,26.268421 188.959634,26.5947368 C191.922416,26.9210526 194.720598,28.0631579 195.214395,32.7947368 C195.708192,37.5263157 194.555999,41.2789474 192.087015,42.5842105 L192.087015,42.5842105 Z M237.845532,21.5368421 C229.615583,21.3736842 225.994405,27.4105263 225.994405,27.4105263 C220.39804,40.7894737 228.627989,48.4578947 236.857938,48.4578947 C245.087888,48.4578947 250.684253,43.5631579 250.848852,34.9157895 C250.848852,26.5947368 246.075481,21.7 237.845532,21.5368421 L237.845532,21.5368421 Z M241.302111,42.5842105 C238.833126,43.8894737 232.578365,44.5421053 230.932375,38.8315789 C229.286385,33.1210526 231.426172,29.2052631 233.236761,27.7368421 C233.236761,27.7368421 235.211948,26.268421 238.17473,26.5947368 C241.137512,26.9210526 243.935695,28.0631579 244.429492,32.7947368 C244.923289,37.5263157 243.606497,41.2789474 241.302111,42.5842105 L241.302111,42.5842105 Z M213.649481,32.1421053 C212.168091,31.6526316 209.205309,29.8578947 211.509695,26.9210526 C213.155685,24.9631579 220.39804,28.0631579 220.39804,28.0631579 L220.39804,22.5157895 C220.39804,22.5157895 215.789268,20.5578947 210.028304,22.0263158 C204.267339,23.4947369 202.456751,31.1631579 206.242527,34.2631579 C210.028304,37.3631579 216.283065,38.1789474 215.46007,41.6052632 C214.637075,45.031579 208.217715,43.7263158 204.267339,41.2789474 L204.267339,47.3157895 C204.267339,47.3157895 210.192903,49.4368421 215.130872,48.1315789 C220.068842,46.8263157 222.208629,43.4 221.714832,39.3210526 C221.550233,35.0789474 214.966273,32.6315789 213.649481,32.1421053 Z M284.097847,27.0842105 L284.097847,22.1894737 L277.843085,22.1894737 L277.843085,14.3578947 L271.752923,16.3157895 L271.752923,22.0263158 L262.370781,22.0263158 L262.370781,17.4578947 C262.370781,17.4578947 263.029177,12.7263158 269.119339,15.0105263 L269.119339,9.62631581 C269.119339,9.62631581 264.510568,8.48421054 260.724791,10.6052632 C256.939014,12.7263158 256.609816,15.9894737 256.445217,17.4578947 C256.280618,18.9263158 256.445217,22.1894737 256.445217,22.1894737 L252.001045,22.1894737 L252.001045,27.2473684 L256.280618,27.2473684 L256.280618,47.9684211 L262.53538,47.9684211 L262.53538,27.2473684 L271.588324,27.2473684 L271.588324,42.0947368 C271.588324,42.0947368 272.411319,46.1736842 274.386507,47.4789474 C276.361694,48.7842105 280.805867,49.6 284.097847,47.8052632 L284.097847,43.0736842 C284.097847,43.0736842 281.464263,44.2157895 280.147471,43.8894737 C278.66608,43.5631579 277.843085,42.2578948 277.843085,39.8105263 L277.843085,27.5736842 L284.097847,27.5736842 L284.097847,27.0842105 Z" id="形状" fill-rule="nonzero"></path>
            <path d="M123.492679,15.2512776 C123.699661,16.5172684 124.572339,17.5776087 125.781934,18.0328169 C126.991529,18.4880252 128.354241,18.2689319 129.35667,17.4580799 C130.3591,16.647228 130.848926,15.3678277 130.641608,14.101891 C130.434626,12.8359002 129.561948,11.7755599 128.352353,11.3203517 C127.142758,10.8651434 125.780046,11.0842367 124.777617,11.8950887 C123.775187,12.7059406 123.285361,13.9853408 123.492679,15.2512776 L123.492679,15.2512776 Z" id="路径"></path>
        </g>
    </g>
</svg>