<?xml version="1.0" encoding="UTF-8"?>
<svg width="362px" height="49px" viewBox="0 0 362 49" version="1.1" xmlns="http://www.w3.org/2000/svg" xmlns:xlink="http://www.w3.org/1999/xlink">
    <title>腾讯</title>
    <g id="作品集个人网站" stroke="none" stroke-width="1" fill="none" fill-rule="evenodd" opacity="0.100000001">
        <g id="画框-2" transform="translate(-1089, -292)" fill="#000000">
            <g id="腾讯" transform="translate(1089, 292)">
                <path d="M285.542151,26.6093537 C283.795343,27.1432778 282.45477,27.5539887 280.829832,28.0468417 C280.870456,24.8843681 281.601678,22.912956 284.770306,22.0915343 C286.720231,21.5986813 288.426415,19.996909 290.213847,18.8879897 C290.091976,18.6004921 290.01073,18.3129945 289.888859,18.0254969 L282.495393,18.0254969 C282.861004,16.588009 283.104745,15.5201607 283.307862,14.657668 C287.004595,13.3433932 291.595044,16.4647957 294.966789,11.4541233 L283.957837,11.4541233 C284.201578,9.97556427 284.404695,8.86664497 284.607812,7.75772568 C285.826515,7.59344134 286.923348,7.47022808 288.263922,7.30594374 C287.938934,5.29346058 287.65457,3.48633284 287.329583,1.3917075 L292.123148,1.3917075 C292.407512,2.78812439 292.61063,4.22561237 293.057487,5.62202926 C293.260605,6.3202377 293.91058,6.85416181 294.357438,7.47022808 C294.926166,6.85416181 295.819881,6.3202377 296.022999,5.58095817 C296.551103,3.89704369 296.713597,2.08991595 297.079208,0.241717122 L301.872774,0.241717122 C301.669657,2.66491114 301.425916,4.92382081 301.222799,7.1416594 C303.782075,8.12736544 304.31018,6.36130879 304.553921,4.88274973 C305.203896,1.10420991 307.397561,0.447072547 310.891177,1.3917075 C310.200579,3.23990633 309.50998,5.08810515 308.738135,7.18273049 C309.916215,7.34701483 310.931801,7.51129917 312.150504,7.67558351 C311.906763,8.74343172 311.663022,9.81127993 311.459905,10.7148438 C307.356938,12.4398294 302.319632,9.0720004 298.947886,12.9737535 C298.98851,13.3433932 299.069756,13.7541041 299.11038,14.1237439 L312.312997,14.1237439 C313.125466,17.080862 311.98801,17.9022837 309.550604,17.7790704 C307.803796,17.6969283 306.056988,17.7790704 303.822699,17.7790704 C305.813247,21.6808235 309.428733,22.3379609 312.841102,23.9397332 C312.353621,25.1718657 311.86614,26.4039983 311.256788,28.0468417 C309.103746,27.22542 307.03195,26.4039983 304.635168,25.5004344 C304.147686,27.3486332 303.700828,29.1146899 303.294594,30.7164622 C303.700828,31.086102 303.863322,31.3325285 304.025816,31.3325285 C309.144369,31.8253815 309.144369,31.8253815 308.21003,36.9592671 C307.560055,40.5735226 306.828833,44.1877781 306.097611,48.0484601 C301.913397,48.0484601 297.851053,48.2127444 293.788709,47.9252468 C292.7325,47.8431046 291.838784,46.2413323 290.823198,45.3377685 C291.026316,44.9681287 291.188809,44.5984889 291.391926,44.2288492 C293.748086,44.2288492 296.104245,44.0645648 298.419781,44.2699203 C300.694694,44.4752757 301.994644,43.9413516 302.157138,41.3538732 C302.279008,39.4646033 302.766489,37.6164045 303.172724,35.3574948 L284.160954,35.3574948 C284.648436,32.4414478 285.05467,29.7307562 285.542151,26.6093537 L285.542151,26.6093537 Z M299.191627,26.1575718 L287.207712,26.1575718 C288.751403,27.1022067 289.563872,27.6361308 290.376341,28.1289838 C290.295094,29.2379031 290.213847,30.2236092 290.1326,31.4557417 L298.135417,31.4557417 C298.460405,29.7307562 298.826016,28.0468417 299.191627,26.1575718 Z M300.654071,22.3790319 C300.857188,22.1326054 301.019681,21.8861789 301.222799,21.6397524 C300.085342,20.4076199 298.622899,18.0254969 297.851053,18.2308524 C295.941752,18.7647765 294.316814,20.489762 292.570006,21.7218946 C292.691877,21.9683211 292.85437,22.1736765 292.976241,22.420103 C295.535517,22.3790319 298.094794,22.3790319 300.654071,22.3790319 L300.654071,22.3790319 Z M354.805114,43.8181383 L360.411149,43.8181383 C360.248655,47.3091805 358.745588,48.7466685 355.414466,48.2948866 C353.139553,48.007389 350.824017,48.2538155 347.980377,48.2538155 C348.792846,43.9002805 349.524067,39.8342431 350.295913,35.7271346 C350.824017,32.8110875 351.352122,29.8950405 351.92085,26.9789935 C352.327085,25.0486525 352.042721,23.9808043 349.645938,24.0629464 C342.455589,24.350444 343.958656,23.0772404 342.577459,29.8539694 C341.561873,34.8235707 340.383794,39.793172 339.896312,44.8449154 C339.571325,47.9663179 338.311998,48.5413131 335.752722,48.2127444 C334.940253,48.0895312 334.087161,48.2127444 333.234068,48.2127444 C334.696512,40.2449539 336.118333,32.4825189 337.6214,24.350444 C335.508981,24.1861597 333.762173,24.1040175 331.893495,23.9808043 C331.527884,21.1468994 332.218482,19.504056 335.305864,19.8736958 C337.580776,20.1611934 338.718233,19.4219138 338.880726,16.8344355 C339.083844,14.1237439 339.896312,11.4541233 340.465041,8.82557389 C347.939753,9.93449318 344.771125,15.3558764 344.527384,19.8326247 C347.046038,19.8326247 349.32095,19.9147668 351.555239,19.7504825 C352.164591,19.7094114 353.139553,18.9701319 353.261424,18.3951367 C354.114516,14.4933836 354.764491,10.5916305 355.536336,6.23809553 L334.980876,6.23809553 C334.493395,4.55418105 334.087161,3.19883524 333.599679,1.47384967 C342.171225,1.47384967 350.417783,1.43277859 358.664341,1.47384967 C361.264241,1.47384967 362.401698,2.66491114 361.873593,5.45774492 C360.208032,14.1648149 358.623718,22.912956 357.039404,31.6610972 C356.308182,35.6039213 355.57696,39.5467455 354.805114,43.8181383 L354.805114,43.8181383 Z M1.13561356e-13,6.77201964 C0.487481266,4.34882562 0.893715654,2.29527137 1.34057348,0.159574952 L45.0513936,0.159574952 C44.6045358,2.37741354 44.157678,4.43096779 43.6701967,6.73094855 C38.8766309,6.73094855 34.164312,6.89523289 29.4926166,6.64880638 C27.0145868,6.52559313 26.2833649,7.47022808 25.917754,9.77020884 C24.0084523,21.3522548 21.936657,32.8932297 19.9461084,44.4342046 C19.7429913,45.584195 19.4586272,46.6931143 19.2148866,48.007389 L10.1152363,48.007389 C12.5120191,34.3307177 14.8681786,20.7361885 17.2649615,6.77201964 L1.13561356e-13,6.77201964 L1.13561356e-13,6.77201964 Z" id="形状" fill-rule="nonzero"></path>
                <path d="M63.2506942,39.7110298 C62.8038364,45.7484793 62.7225895,46.3645456 56.3040862,47.5966781 C51.6730142,48.4591709 46.6357077,48.9109529 42.0452592,48.0895312 C31.8081526,46.2002612 29.2894994,38.8896081 31.1581776,30.0593248 C33.7174542,18.0254969 49.2356078,10.8380571 60.2445597,16.1772981 C66.6630631,19.2987006 67.2317912,27.1432778 65.4443599,32.4414478 C65.2412427,33.0985851 63.6163052,33.5914381 62.6413426,33.5914381 C55.9384752,33.6735803 49.1949844,33.6325092 42.492117,33.6325092 C39.2016184,33.6325092 38.4703965,34.8646418 39.81097,37.9860442 C41.2734138,41.3949443 45.7013686,43.653854 50.8199219,42.8324323 C55.1260064,42.1752949 59.2695972,40.7378069 63.2506942,39.7110298 Z M57.6040362,28.3754104 C58.5383753,25.2540079 57.6852831,22.7486717 55.3697471,21.1468994 C52.5667298,19.2165584 49.3168547,19.3808427 46.3513437,20.8594018 C43.4264561,22.3379609 41.2327904,24.5968705 40.7453091,28.3343393 C46.5950843,28.3754104 52.0792485,28.3754104 57.6040362,28.3754104 Z M180.205575,38.8896081 C179.961834,45.7074082 180.002457,45.7895504 173.827695,47.6377492 C168.384154,49.2805926 162.737496,49.5270191 157.375202,47.8841757 C148.031811,45.0091998 144.822559,34.8235707 149.941113,25.5415055 C154.775302,16.7933644 166.474852,12.2344739 175.818243,15.5201607 C182.074253,17.6969283 185.852232,27.1432778 182.561734,32.7700164 C182.196123,33.3860827 180.814926,33.6325092 179.880587,33.6735803 C173.055849,33.7557225 166.231112,33.7146514 159.406374,33.7557225 C156.115875,33.7557225 155.506524,34.7003574 156.847097,37.862831 C158.147047,40.8610202 160.625077,42.2574371 163.712458,42.7502901 C169.602857,43.6127829 175.046398,42.0520817 180.205575,38.8896081 L180.205575,38.8896081 Z M157.578319,28.6218369 C162.046897,28.6218369 166.434229,28.703979 170.780937,28.5807658 C172.162134,28.5396947 174.640163,28.1289838 174.680787,27.718273 C174.802657,26.0343585 174.558917,24.1040175 173.746448,22.6254585 C173.137096,21.5165392 171.593405,20.5719042 170.293455,20.2433355 C164.646797,18.7237054 159.284504,22.1736765 157.578319,28.6218369 Z M103.305405,48.0484601 L94.0432608,48.0484601 C95.0588468,42.1342238 96.1963031,36.2610587 97.0493953,30.3468224 C97.9431109,24.0218753 96.7650312,21.8861789 92.0120889,20.9826151 C88.4372263,20.3254777 82.668698,23.1183115 81.7749823,27.9236284 C80.6781495,33.7557225 79.5813166,39.5467455 78.6469775,45.3788395 C78.32199,47.4734649 77.5501447,48.3359577 75.4377258,48.2127444 C73.3659305,48.0895312 71.2535117,48.1716733 68.9785991,48.1716733 C70.8066538,37.0414093 72.5940851,26.0754296 74.4221399,14.9040945 C74.8689977,15.1094499 75.2752321,15.2326632 75.5595962,15.4380186 C79.3781994,18.2719234 82.7905683,20.4486909 87.7060044,16.4237246 C91.2402435,13.4666065 96.27755,14.1237439 100.746128,15.3148053 C104.483485,16.3005114 107.408372,20.6540464 106.880267,25.3772211 C105.986552,32.9753719 104.524108,40.4503093 103.305405,48.0484601 L103.305405,48.0484601 Z M199.786072,19.8326247 C203.807792,15.643374 208.560735,14.4112414 213.801158,14.7398101 C220.544649,15.150521 224.282006,19.0933451 223.794524,25.9111453 C223.428913,30.9628887 222.372704,35.9735611 221.560235,40.9842335 C221.194624,43.2842142 220.66652,45.5431239 220.179038,48.007389 L211.079388,48.007389 C212.135597,41.9699395 213.191807,36.0557032 214.207393,30.141467 C215.222979,24.4325862 212.948066,20.9004729 208.195124,20.8594018 C203.726546,20.7772596 199.339214,24.3093729 198.486122,28.8271923 C197.308042,35.1521394 196.251833,41.5181576 195.114377,48.0484601 L185.974103,48.0484601 C187.802158,37.0824804 189.589589,26.1986428 191.417644,14.9862366 C194.261284,16.588009 196.942431,18.1487102 199.786072,19.8326247 L199.786072,19.8326247 Z M142.547647,38.6842527 C142.222659,39.9574563 142.019542,40.5324515 141.897672,41.1485178 C140.597722,47.4323938 140.353981,47.514536 133.854231,48.2948866 C129.101288,48.8698818 124.51084,48.9520239 119.920391,47.2270384 C111.308222,43.9824227 109.03331,35.2753526 112.364432,27.5539887 C116.304905,18.3951367 124.348346,15.2737342 133.529243,14.7808812 C137.632211,14.5755258 141.775801,15.3558764 146.203756,15.7255162 C145.635028,19.0933451 145.228794,21.6808235 144.741312,24.4736573 C139.054031,19.7504825 133.041762,19.4629849 126.907623,22.9950982 C122.479668,25.5415055 120.489119,29.5254007 120.773484,34.6182153 C121.057848,39.0128214 124.957698,42.2574371 130.198121,42.6270769 C134.544829,42.9556455 138.485303,41.9288684 142.547647,38.6842527 L142.547647,38.6842527 Z M275.426915,48.0895312 L270.470856,48.0895312 C271.527065,42.5860058 272.583274,37.2056936 273.720731,31.3325285 C272.014546,31.4146706 270.673973,31.4557417 269.211529,31.5378839 C267.992826,37.1235515 266.814746,42.4627925 265.636666,48.007389 L261.452452,48.007389 C264.458587,32.4414478 267.464721,17.080862 270.511479,1.47384967 C273.558237,1.47384967 276.889359,1.43277859 280.220481,1.47384967 C282.495393,1.47384967 283.307862,2.62384005 282.901628,4.9648919 C281.317314,13.9183884 279.773623,22.871885 278.229932,31.8253815 C277.336217,37.2056936 276.401878,42.5860058 275.426915,48.0895312 L275.426915,48.0895312 Z M275.914396,18.6004921 C272.664521,17.4505017 271.486441,18.7647765 271.120831,21.434397 C270.87709,23.2825958 270.592726,25.1307946 270.308362,27.0611356 C273.35512,27.9646995 275.101928,27.4307754 275.142551,23.9397332 C275.142551,22.1736765 275.630032,20.4486909 275.914396,18.6004921 L275.914396,18.6004921 Z M278.270556,6.03274011 C277.864321,5.66310034 277.49871,5.33453166 277.092476,4.9648919 C275.95502,5.74524251 274.208212,6.3202377 273.842601,7.38808591 C273.070756,9.48271125 273.030132,11.8237631 272.542651,15.0273077 C274.411329,14.205886 276.401878,13.9183884 276.767489,13.0148246 C277.701828,10.8380571 277.823698,8.37379195 278.270556,6.03274011 Z M256.130782,21.2701126 L244.471855,21.2701126 C243.618762,25.8700742 242.76567,30.3878935 241.993825,34.9057129 C241.34385,38.6431816 240.815745,42.4217214 240.003276,46.1591902 C239.840783,46.9806119 238.662703,48.0484601 237.890858,48.1306022 C235.615945,48.4180998 233.300409,48.2127444 230.538015,48.2127444 C232.081706,39.1360346 233.54415,30.4700357 235.047217,21.7218946 C232.934798,21.3522548 230.741132,21.5165392 229.278689,20.5719042 C227.734998,19.5451271 226.841282,17.4915728 225.297592,15.3148053 C228.628714,15.3148053 231.391107,15.4790897 234.153501,15.2326632 C235.006593,15.150521 236.225297,14.0826728 236.469037,13.22018 C237.119012,11.1255546 237.322129,8.90771606 237.809611,6.23809553 C243.94375,11.289839 249.793525,16.0540849 256.130782,21.2701126 L256.130782,21.2701126 Z M322.225117,18.6004921 L317.553421,18.6004921 C317.147187,14.6165969 317.512798,14.1237439 321.08766,14.1648149 L328.684243,14.1648149 C327.46554,21.8861789 326.246837,29.4021875 324.946887,37.6574756 C327.2218,35.93249 328.927984,34.6182153 331.162273,32.9343008 C330.512298,36.2199876 330.837286,39.1771057 327.831151,41.1074467 C324.175042,43.4895696 320.722049,46.1181191 316.862823,48.8698818 C318.650254,38.5199684 320.397062,28.7861212 322.225117,18.6004921 L322.225117,18.6004921 Z M280.301728,38.1913997 L299.23225,38.1913997 C298.947886,39.3824611 298.744769,40.4092383 298.419781,41.7645841 C292.935617,41.7645841 287.410829,41.8877973 281.886042,41.6413708 C281.03295,41.6002997 280.261104,39.8342431 279.448635,38.8896081 C279.733,38.6431816 280.017364,38.3967551 280.301728,38.1913997 Z M330.715415,11.1255546 L324.825017,11.1255546 C324.053171,7.51129917 323.321949,3.89704369 322.550104,0.282788207 C327.790528,-0.333278069 327.790528,-0.333278069 329.049854,4.43096779 C329.577959,6.56666421 330.106064,8.70236063 330.715415,11.1255546 L330.715415,11.1255546 Z" id="形状" fill-rule="nonzero"></path>
            </g>
        </g>
    </g>
</svg>